<?xml version="1.0" encoding="utf-8"?>
<!-- Generator: Adobe Illustrator 26.3.1, SVG Export Plug-In . SVG Version: 6.00 Build 0)  -->
<svg version="1.2" baseProfile="tiny" id="g-Map-Artboard_1-interactions-img" xmlns="http://www.w3.org/2000/svg" xmlns:xlink="http://www.w3.org/1999/xlink"
	 x="0px" y="0px" viewBox="0 0 600 546.407" overflow="visible" xml:space="preserve">
<g>
	<g id="new_00000085940515152538812230000003950984971785263780_">
		<g id="svg-id-m14-svg_00000063614653617201363930000015711226085098689418_" transform="translate(-18.2, -18.2)">
			<path fill="#3D4D51" d="M309.034,215.387c0.003,1.14-0.236,2.269-0.701,3.31c-1.227,2.74-7.123,10.652-7.123,10.652
				s-5.874-7.912-7.123-10.652c-0.466-1.041-0.705-2.169-0.701-3.31c-0.036-4.358,3.466-7.92,7.824-7.956c0,0,0,0,0.001,0
				C305.566,207.467,309.07,211.029,309.034,215.387C309.034,215.387,309.034,215.387,309.034,215.387z"/>
		</g>
		<g id="svg-id-m12-svg_00000059308000807520766170000017937638059892194999_" transform="translate(-18.2, -18.2)">
			<path fill="#3D4D51" d="M346.125,219.602c0.003,1.14-0.236,2.269-0.701,3.31c-1.227,2.74-7.123,10.652-7.123,10.652
				s-5.874-7.912-7.123-10.652c-0.466-1.041-0.705-2.169-0.701-3.31c-0.036-4.358,3.466-7.92,7.824-7.956c0,0,0,0,0.001,0
				C342.658,211.682,346.161,215.244,346.125,219.602C346.125,219.602,346.125,219.602,346.125,219.602z"/>
		</g>
		<g id="svg-id-m10-svg_00000085222862409093692800000003364210180181040779_" transform="translate(-18.2, -18.2)">
			<path fill="#3D4D51" d="M160.669,92.312c0.003,1.14-0.236,2.269-0.701,3.31c-1.227,2.74-7.123,10.652-7.123,10.652
				s-5.874-7.912-7.123-10.652c-0.466-1.041-0.705-2.169-0.701-3.31c-0.036-4.358,3.466-7.92,7.824-7.956c0,0,0,0,0.001,0
				C157.202,84.392,160.705,87.954,160.669,92.312C160.669,92.312,160.669,92.312,160.669,92.312z"/>
		</g>
		<g id="svg-id-m9-svg_00000011741810790222820420000007839807362015748029_" transform="translate(-18.2, -18.2)">
			<path fill="#3D4D51" d="M192.702,96.527c0.003,1.14-0.236,2.269-0.701,3.31c-1.227,2.74-7.123,10.652-7.123,10.652
				s-5.874-7.912-7.123-10.652c-0.466-1.041-0.705-2.169-0.701-3.31c-0.036-4.358,3.466-7.92,7.824-7.956c0,0,0,0,0.001,0
				C189.235,88.607,192.738,92.169,192.702,96.527C192.702,96.526,192.702,96.527,192.702,96.527z"/>
		</g>
		<g id="svg-id-m7-svg_00000090278903041211475150000005866638200163701426_" transform="translate(-18.2, -18.2)">
			<path fill="#3D4D51" d="M307.348,272.71c0.003,1.14-0.236,2.269-0.701,3.31c-1.227,2.74-7.123,10.652-7.123,10.652
				s-5.874-7.912-7.123-10.652c-0.466-1.041-0.705-2.169-0.701-3.31c-0.036-4.358,3.466-7.92,7.824-7.956c0,0,0,0,0.001,0
				C303.881,264.79,307.384,268.352,307.348,272.71C307.348,272.709,307.348,272.709,307.348,272.71z"/>
		</g>
	</g>
	<g id="old_00000004509796182873410240000015294156611489509044_">
		<path fill="#589DA0" d="M367.545,205.617c0.003,1.14-0.236,2.269-0.701,3.31c-1.227,2.74-7.123,10.652-7.123,10.652
			s-5.874-7.912-7.123-10.652c-0.466-1.041-0.705-2.169-0.701-3.31c-0.036-4.358,3.466-7.92,7.824-7.956c0,0,0,0,0.001,0
			C364.078,197.697,367.581,201.259,367.545,205.617C367.545,205.616,367.545,205.617,367.545,205.617z"/>
		<path fill="#589DA0" d="M221.709,252.824c0.003,1.14-0.236,2.269-0.701,3.31c-1.227,2.74-7.123,10.652-7.123,10.652
			s-5.874-7.912-7.123-10.652c-0.466-1.041-0.705-2.169-0.701-3.31c-0.036-4.358,3.466-7.92,7.824-7.956c0,0,0,0,0.001,0
			C218.242,244.904,221.745,248.466,221.709,252.824C221.709,252.823,221.709,252.824,221.709,252.824z"/>
		<path fill="#589DA0" d="M333.826,203.088c0.003,1.14-0.236,2.269-0.701,3.31c-1.227,2.74-7.123,10.652-7.123,10.652
			s-5.874-7.912-7.123-10.652c-0.466-1.041-0.705-2.169-0.701-3.31c-0.036-4.358,3.466-7.92,7.824-7.956c0,0,0,0,0.001,0
			C330.358,195.168,333.862,198.73,333.826,203.088C333.826,203.088,333.826,203.088,333.826,203.088z"/>
		<path fill="#589DA0" d="M386.09,178.641c0.003,1.14-0.236,2.269-0.701,3.31c-1.227,2.74-7.123,10.652-7.123,10.652
			s-5.874-7.912-7.123-10.652c-0.466-1.041-0.705-2.169-0.701-3.31c-0.036-4.358,3.466-7.92,7.824-7.956c0,0,0,0,0.001,0
			C382.623,170.722,386.126,174.283,386.09,178.641C386.09,178.641,386.09,178.641,386.09,178.641z"/>
		<path fill="#589DA0" d="M331.297,179.484c0.003,1.14-0.236,2.269-0.701,3.31c-1.227,2.74-7.123,10.652-7.123,10.652
			s-5.874-7.912-7.123-10.652c-0.466-1.041-0.705-2.169-0.701-3.31c-0.036-4.358,3.466-7.92,7.824-7.956c0,0,0,0,0.001,0
			C327.83,171.565,331.333,175.126,331.297,179.484C331.297,179.484,331.297,179.484,331.297,179.484z"/>
		<path fill="#589DA0" d="M291.676,216.576c0.003,1.14-0.236,2.269-0.701,3.31c-1.227,2.74-7.123,10.652-7.123,10.652
			s-5.874-7.912-7.123-10.652c-0.466-1.041-0.705-2.169-0.701-3.31c-0.036-4.358,3.466-7.92,7.824-7.956c0,0,0,0,0.001,0
			C288.209,208.656,291.713,212.217,291.676,216.576C291.676,216.575,291.676,216.575,291.676,216.576z"/>
		<path fill="#589DA0" d="M331.297,195.501c0.003,1.14-0.236,2.269-0.701,3.31c-1.227,2.74-7.123,10.652-7.123,10.652
			s-5.874-7.912-7.123-10.652c-0.466-1.041-0.705-2.169-0.701-3.31c-0.036-4.358,3.466-7.92,7.824-7.956c0,0,0,0,0.001,0
			C327.83,187.581,331.333,191.143,331.297,195.501C331.297,195.501,331.297,195.501,331.297,195.501z"/>
		<path fill="#589DA0" d="M316.123,240.179c0.003,1.14-0.236,2.269-0.701,3.31c-1.227,2.74-7.123,10.652-7.123,10.652
			s-5.874-7.912-7.123-10.652c-0.466-1.041-0.705-2.169-0.701-3.31c-0.036-4.358,3.466-7.92,7.824-7.956c0,0,0,0,0.001,0
			C312.656,232.259,316.159,235.821,316.123,240.179C316.123,240.179,316.123,240.179,316.123,240.179z"/>
		<path fill="#589DA0" d="M178.717,193.815c0.003,1.14-0.236,2.269-0.701,3.31c-1.227,2.74-7.123,10.652-7.123,10.652
			s-5.874-7.912-7.123-10.652c-0.466-1.041-0.705-2.169-0.701-3.31c-0.036-4.358,3.466-7.92,7.824-7.956c0,0,0,0,0.001,0
			C175.25,185.895,178.753,189.457,178.717,193.815C178.717,193.815,178.717,193.815,178.717,193.815z"/>
		<path fill="#589DA0" d="M397.892,337.122c0.003,1.14-0.236,2.269-0.701,3.31c-1.227,2.74-7.123,10.652-7.123,10.652
			s-5.874-7.912-7.123-10.652c-0.466-1.041-0.705-2.169-0.701-3.31c-0.036-4.358,3.466-7.92,7.824-7.956c0,0,0,0,0.001,0
			C394.425,329.202,397.928,332.764,397.892,337.122C397.892,337.121,397.892,337.122,397.892,337.122z"/>
		<path fill="#589DA0" d="M362.487,338.808c0.003,1.14-0.236,2.269-0.701,3.31c-1.227,2.74-7.123,10.652-7.123,10.652
			s-5.874-7.912-7.123-10.652c-0.466-1.041-0.705-2.169-0.701-3.31c-0.036-4.358,3.466-7.92,7.824-7.956c0,0,0,0,0.001,0
			C359.02,330.888,362.523,334.45,362.487,338.808C362.487,338.807,362.487,338.807,362.487,338.808z"/>
		<path fill="#589DA0" d="M403.793,336.279c0.003,1.14-0.236,2.269-0.701,3.31c-1.227,2.74-7.123,10.652-7.123,10.652
			s-5.874-7.912-7.123-10.652c-0.466-1.041-0.705-2.169-0.701-3.31c-0.036-4.358,3.466-7.92,7.824-7.956c0,0,0,0,0.001,0
			C400.326,328.359,403.829,331.921,403.793,336.279C403.793,336.278,403.793,336.279,403.793,336.279z"/>
		<path fill="#589DA0" d="M320.338,276.427c0.003,1.14-0.236,2.269-0.701,3.31c-1.227,2.74-7.123,10.652-7.123,10.652
			s-5.874-7.912-7.123-10.652c-0.466-1.041-0.705-2.169-0.701-3.31c-0.036-4.358,3.466-7.92,7.824-7.956c0,0,0,0,0.001,0
			C316.871,268.507,320.374,272.069,320.338,276.427C320.338,276.427,320.338,276.427,320.338,276.427z"/>
		<path fill="#589DA0" d="M297.577,306.774c0.003,1.14-0.236,2.269-0.701,3.31c-1.227,2.74-7.123,10.652-7.123,10.652
			s-5.874-7.912-7.123-10.652c-0.466-1.041-0.705-2.169-0.701-3.31c-0.036-4.358,3.466-7.92,7.824-7.956c0,0,0,0,0.001,0
			C294.11,298.855,297.614,302.416,297.577,306.774C297.577,306.774,297.577,306.774,297.577,306.774z"/>
		<path fill="#589DA0" d="M155.957,168.526c0.003,1.14-0.236,2.269-0.701,3.31c-1.227,2.74-7.123,10.652-7.123,10.652
			s-5.874-7.912-7.123-10.652c-0.466-1.041-0.705-2.169-0.701-3.31c-0.036-4.358,3.466-7.92,7.824-7.956c0,0,0,0,0.001,0
			C152.49,160.606,155.993,164.168,155.957,168.526C155.957,168.525,155.957,168.525,155.957,168.526z"/>
		<path fill="#589DA0" d="M173.659,91.814c0.003,1.14-0.236,2.269-0.701,3.31c-1.227,2.74-7.123,10.652-7.123,10.652
			s-5.874-7.912-7.123-10.652c-0.466-1.041-0.705-2.169-0.701-3.31c-0.036-4.358,3.466-7.92,7.824-7.956c0,0,0,0,0.001,0
			C170.192,83.895,173.695,87.456,173.659,91.814C173.659,91.814,173.659,91.814,173.659,91.814z"/>
	</g>
	<g id="dry_00000163050058332806987740000002855290366252492177_">
		<path fill="#9B5663" d="M443.858,410.652l-2.63,2.647l-3.945-3.962l-3.962,3.962l-2.63-2.647l3.945-3.945l-3.945-3.945l2.63-2.647
			l3.962,3.962l3.945-3.962l2.63,2.647l-3.945,3.945L443.858,410.652z"/>
		<path fill="#9B5663" d="M244.915,270.718l-2.63,2.647l-3.945-3.962l-3.962,3.962l-2.63-2.647l3.945-3.945l-3.945-3.945l2.63-2.647
			l3.962,3.962l3.945-3.962l2.63,2.647l-3.945,3.945L244.915,270.718z"/>
		<path fill="#9B5663" d="M228.055,143.428l-2.63,2.647l-3.945-3.962l-3.962,3.962l-2.63-2.647l3.945-3.945l-3.945-3.945l2.63-2.647
			l3.962,3.962l3.945-3.962l2.63,2.647l-3.945,3.945L228.055,143.428z"/>
		<path fill="#9B5663" d="M125.212,203.279l-2.63,2.647l-3.945-3.962l-3.962,3.962l-2.63-2.647l3.945-3.945l-3.945-3.945l2.63-2.647
			l3.962,3.962l3.945-3.962l2.63,2.647l-3.945,3.945L125.212,203.279z"/>
		<path fill="#9B5663" d="M126.897,213.395l-2.63,2.647l-3.945-3.962l-3.962,3.962l-2.63-2.647l3.945-3.945l-3.945-3.945l2.63-2.647
			l3.962,3.962l3.945-3.962l2.63,2.647l-3.945,3.945L126.897,213.395z"/>
	</g>
</g>
<style>
#g-Map-Artboard_1-interactions-img rect, #g-Map-Artboard_1-interactions-img circle, #g-Map-Artboard_1-interactions-img path, #g-Map-Artboard_1-interactions-img line, #g-Map-Artboard_1-interactions-img polyline, #g-Map-Artboard_1-interactions-img polygon { vector-effect: non-scaling-stroke; }
</style>
</svg>

